HIERARCHY
ROOT hip
{
	OFFSET 0.000000 0.000000 0.000000 
	CHANNELS 6 Xposition Yposition Zposition Zrotation Yrotation Xrotation
	JOINT abdomen
	{
		OFFSET 0.000000 20.688101 -0.731520 
		CHANNELS 3 Zrotation Xrotation Yrotation
		JOINT chest
		{
			OFFSET 0.000000 11.704300 -0.487680 
			CHANNELS 3 Zrotation Xrotation Yrotation
			JOINT neck
			{
				OFFSET 0.000000 22.189400 -2.194560 
				CHANNELS 3 Zrotation Xrotation Yrotation
				JOINT head
				{
					OFFSET -0.243840 7.071330 1.219200 
					CHANNELS 3 Zrotation Xrotation Yrotation
					End Site
					{
						OFFSET 1.000000 0.000000 0.000000 
					}
				}
			}
			JOINT rCollar
			{
				OFFSET -2.682240 19.263399 -4.876800 
				CHANNELS 3 Zrotation Xrotation Yrotation
				JOINT rShldr
				{
					OFFSET -8.778240 -1.950730 1.463040 
					CHANNELS 3 Zrotation Xrotation Yrotation
					JOINT rForeArm
					{
						OFFSET -28.174200 -1.711500 0.487680 
						CHANNELS 3 Zrotation Xrotation Yrotation
						JOINT rHand
						{
							OFFSET -22.587900 0.773209 7.071360 
							CHANNELS 3 Zrotation Xrotation Yrotation
							JOINT rThumb1
							{
								OFFSET -1.219200 -0.487915 3.413760 
								CHANNELS 3 Zrotation Xrotation Yrotation
								JOINT rThumb2
								{
									OFFSET -3.370350 -0.524490 3.413760 
									CHANNELS 3 Zrotation Xrotation Yrotation
									End Site
									{
										OFFSET -1.782710 -1.182140 1.430490 
									}
								}
							}
							JOINT rIndex1
							{
								OFFSET -7.759470 0.938293 5.608320 
								CHANNELS 3 Zrotation Xrotation Yrotation
								JOINT rIndex2
								{
									OFFSET -2.540570 -0.884171 1.565380 
									CHANNELS 3 Zrotation Xrotation Yrotation
									End Site
									{
										OFFSET -1.625190 -0.234802 1.165020 
									}
								}
							}
							JOINT rMid1
							{
								OFFSET -8.247140 1.182130 3.413760 
								CHANNELS 3 Zrotation Xrotation Yrotation
								JOINT rMid2
								{
									OFFSET -3.101650 -0.590103 1.064700 
									CHANNELS 3 Zrotation Xrotation Yrotation
									End Site
									{
										OFFSET -2.485470 -0.328903 0.837420 
									}
								}
							}
							JOINT rRing1
							{
								OFFSET -8.828220 0.546677 1.516780 
								CHANNELS 3 Zrotation Xrotation Yrotation
								JOINT rRing2
								{
									OFFSET -2.609340 -0.819778 -0.019849 
									CHANNELS 3 Zrotation Xrotation Yrotation
									End Site
									{
										OFFSET -2.338420 -0.294052 0.168128 
									}
								}
							}
							JOINT rPinky1
							{
								OFFSET -8.272020 -0.047791 -0.458400 
								CHANNELS 3 Zrotation Xrotation Yrotation
								JOINT rPinky2
								{
									OFFSET -1.827340 -0.647385 -0.700984 
									CHANNELS 3 Zrotation Xrotation Yrotation
									End Site
									{
										OFFSET -1.692250 -0.517670 -0.607171 
									}
								}
							}
						}
					}
				}
			}
			JOINT lCollar
			{
				OFFSET 2.682240 19.263399 -4.876800 
				CHANNELS 3 Zrotation Xrotation Yrotation
				JOINT lShldr
				{
					OFFSET 8.778240 -1.950730 1.463040 
					CHANNELS 3 Zrotation Xrotation Yrotation
					JOINT lForeArm
					{
						OFFSET 28.174200 -1.711500 0.487680 
						CHANNELS 3 Zrotation Xrotation Yrotation
						JOINT lHand
						{
							OFFSET 22.587900 0.773209 7.071360 
							CHANNELS 3 Zrotation Xrotation Yrotation
							JOINT lThumb1
							{
								OFFSET 1.219200 -0.487915 3.413760 
								CHANNELS 3 Zrotation Xrotation Yrotation
								JOINT lThumb2
								{
									OFFSET 3.370350 -0.524490 3.413760 
									CHANNELS 3 Zrotation Xrotation Yrotation
									End Site
									{
										OFFSET 1.782710 -1.182140 1.430490 
									}
								}
							}
							JOINT lIndex1
							{
								OFFSET 7.759470 0.938293 5.608320 
								CHANNELS 3 Zrotation Xrotation Yrotation
								JOINT lIndex2
								{
									OFFSET 2.540570 -0.884171 1.565380 
									CHANNELS 3 Zrotation Xrotation Yrotation
									End Site
									{
										OFFSET 1.625190 -0.234802 1.165020 
									}
								}
							}
							JOINT lMid1
							{
								OFFSET 8.247140 1.182130 3.413760 
								CHANNELS 3 Zrotation Xrotation Yrotation
								JOINT lMid2
								{
									OFFSET 3.101650 -0.590103 1.064700 
									CHANNELS 3 Zrotation Xrotation Yrotation
									End Site
									{
										OFFSET 2.485470 -0.328903 0.837420 
									}
								}
							}
							JOINT lRing1
							{
								OFFSET 8.828220 0.546677 1.516780 
								CHANNELS 3 Zrotation Xrotation Yrotation
								JOINT lRing2
								{
									OFFSET 2.609340 -0.819778 -0.019849 
									CHANNELS 3 Zrotation Xrotation Yrotation
									End Site
									{
										OFFSET 2.338420 -0.294052 0.168128 
									}
								}
							}
							JOINT lPinky1
							{
								OFFSET 8.272020 -0.047791 -0.458400 
								CHANNELS 3 Zrotation Xrotation Yrotation
								JOINT lPinky2
								{
									OFFSET 1.827340 -0.647385 -0.700984 
									CHANNELS 3 Zrotation Xrotation Yrotation
									End Site
									{
										OFFSET 1.692250 -0.517670 -0.607171 
									}
								}
							}
						}
					}
				}
			}
		}
	}
	JOINT rButtock
	{
		OFFSET -8.778240 4.350840 1.219200 
		CHANNELS 3 Zrotation Xrotation Yrotation
		JOINT rThigh
		{
			OFFSET 0.000000 -1.706870 -2.194560 
			CHANNELS 3 Zrotation Xrotation Yrotation
			JOINT rShin
			{
				OFFSET 0.000000 -36.819901 0.731520 
				CHANNELS 3 Zrotation Xrotation Yrotation
				JOINT rFoot
				{
					OFFSET 0.731520 -45.110401 -5.120640 
					CHANNELS 3 Zrotation Xrotation Yrotation
					End Site
					{
						OFFSET -1.122100 -3.699640 12.103000 
					}
				}
			}
		}
	}
	JOINT lButtock
	{
		OFFSET 8.778240 4.350840 1.219200 
		CHANNELS 3 Zrotation Xrotation Yrotation
		JOINT lThigh
		{
			OFFSET 0.000000 -1.706870 -2.194560 
			CHANNELS 3 Zrotation Xrotation Yrotation
			JOINT lShin
			{
				OFFSET 0.000000 -36.819901 0.731520 
				CHANNELS 3 Zrotation Xrotation Yrotation
				JOINT lFoot
				{
					OFFSET -0.731520 -45.110401 -5.120640 
					CHANNELS 3 Zrotation Xrotation Yrotation
					End Site
					{
						OFFSET 1.122100 -3.699640 12.103000 
					}
				}
			}
		}
	}
}
MOTION
Frames: 9
Frame Time: 0.008333
61.694801 83.493797 -212.955994 4.027100 -39.276199 -9.351300 -11.851000 14.280900 1.228730 3.500390 -4.700060 0.014701 -13.120100 3.812730 -6.728510 25.479601 5.095900 -12.299400 -0.000000 0.000000 0.000000 84.660400 5.014240 2.392940 -9.194760 -3.666110 16.299900 -0.907835 26.002501 3.930890 -0.000000 0.000000 -0.000000 -0.000000 0.000000 -0.000000 -0.000000 0.000000 -0.000000 7.730910 5.474880 0.417314 -0.000000 0.000000 -0.000000 2.905540 0.965183 0.102902 -0.000000 0.000000 -0.000000 10.278600 0.731801 0.025912 -0.000000 0.000000 -0.000000 2.221670 -0.733487 -0.208920 -0.000000 0.000000 0.000000 -76.843903 14.536000 -2.590450 7.537400 -2.774680 -13.256600 0.221719 13.308400 -1.904980 -0.000000 0.000000 0.000000 -0.000000 0.000000 0.000000 -0.000000 0.000000 0.000000 -7.730910 5.474880 -0.417314 -0.000000 0.000000 0.000000 -2.905540 0.965183 -0.102902 -0.000000 0.000000 0.000000 -10.278600 0.731801 -0.025912 -0.000000 0.000000 0.000000 -2.221670 -0.733487 0.208920 -0.000000 0.000000 -0.000000 -0.823147 -24.142900 13.745500 -0.440125 44.743599 0.862097 -1.612850 -16.553900 -3.106660 0.000000 0.000000 0.000000 -8.592440 -11.013400 0.220629 0.257264 39.308498 -0.978203 7.896820 -25.019600 14.572700 
61.570202 83.502098 -212.914001 4.193500 -38.839802 -9.445300 -11.774700 14.214500 1.168930 3.430840 -4.697220 0.000159 -12.984400 3.846000 -6.640620 24.997101 5.027620 -12.104700 -0.000000 0.000000 0.000000 84.764099 4.925080 2.122650 -9.210210 -3.674990 16.328501 -0.892629 25.801001 3.895850 -0.000000 0.000000 -0.000000 -0.000000 0.000000 -0.000000 -0.000000 0.000000 -0.000000 7.730910 5.474880 0.417314 -0.000000 0.000000 -0.000000 2.905540 0.965183 0.102902 -0.000000 0.000000 -0.000000 10.278600 0.731801 0.025912 -0.000000 0.000000 -0.000000 2.221670 -0.733487 -0.208920 -0.000000 0.000000 0.000000 -76.663101 13.948600 -2.737510 7.430770 -2.720320 -13.063900 0.243550 13.915600 -1.995500 -0.000000 0.000000 0.000000 -0.000000 0.000000 0.000000 -0.000000 0.000000 0.000000 -7.730910 5.474880 -0.417314 -0.000000 0.000000 0.000000 -2.905540 0.965183 -0.102902 -0.000000 0.000000 0.000000 -10.278600 0.731801 -0.025912 -0.000000 0.000000 0.000000 -2.221670 -0.733487 0.208920 -0.000000 0.000000 -0.000000 -0.265133 -23.841299 14.527100 -0.434801 44.555199 0.859056 -1.811490 -16.537100 -3.639340 0.000000 0.000000 0.000000 -8.503590 -10.931300 0.065444 0.257322 39.296001 -0.977262 7.899800 -25.069599 14.556600 
61.395599 83.534103 -212.813995 4.301000 -38.764999 -9.480800 -11.648500 13.991900 1.162440 3.315610 -4.608920 0.002654 -12.926000 3.805170 -6.587460 24.632900 5.000890 -11.963000 -0.000000 0.000000 0.000000 84.881699 4.310730 1.875170 -9.156300 -3.644370 16.228201 -0.928148 26.287300 3.979920 0.000000 0.000000 -0.000000 0.000000 0.000000 -0.000000 0.000000 0.000000 -0.000000 7.730910 5.474880 0.417314 0.000000 0.000000 -0.000000 2.905540 0.965183 0.102902 0.000000 0.000000 -0.000000 10.278600 0.731801 0.025912 0.000000 0.000000 -0.000000 2.221670 -0.733487 -0.208920 -0.000000 0.000000 0.000000 -76.544296 13.128200 -2.835050 7.399180 -2.704160 -13.007000 0.263512 14.458800 -2.076770 -0.000000 0.000000 0.000000 -0.000000 0.000000 0.000000 -0.000000 0.000000 0.000000 -7.730910 5.474880 -0.417314 -0.000000 0.000000 0.000000 -2.905540 0.965183 -0.102902 -0.000000 0.000000 0.000000 -10.278600 0.731801 -0.025912 -0.000000 0.000000 0.000000 -2.221670 -0.733487 0.208920 -0.000000 0.000000 -0.000000 0.333070 -23.615000 15.548600 -0.430876 44.414299 0.856935 -2.002430 -16.391600 -4.170330 0.000000 0.000000 0.000000 -8.379180 -10.877100 -0.002765 0.256117 39.229198 -0.975441 7.922290 -25.075100 14.597800 
61.186401 83.581001 -212.703003 4.172500 -38.797699 -9.374200 -11.481800 13.664200 1.195260 3.164210 -4.467330 0.017742 -12.921200 3.738160 -6.561950 24.362101 4.997430 -11.871800 -0.000000 0.000000 0.000000 85.007896 3.334570 1.635420 -9.054240 -3.586400 16.039000 -1.002110 27.231100 4.146190 0.000000 0.000000 -0.000000 0.000000 0.000000 -0.000000 0.000000 0.000000 -0.000000 7.730910 5.474880 0.417314 0.000000 0.000000 -0.000000 2.905540 0.965183 0.102902 0.000000 0.000000 -0.000000 10.278600 0.731801 0.025912 0.000000 0.000000 -0.000000 2.221670 -0.733487 -0.208920 -0.000000 0.000000 0.000000 -76.460999 12.146800 -2.903500 7.412900 -2.711050 -13.031900 0.283312 14.982300 -2.155410 -0.000000 0.000000 0.000000 -0.000000 0.000000 0.000000 -0.000000 0.000000 0.000000 -7.730910 5.474880 -0.417314 -0.000000 0.000000 0.000000 -2.905540 0.965183 -0.102902 -0.000000 0.000000 0.000000 -10.278600 0.731801 -0.025912 -0.000000 0.000000 0.000000 -2.221670 -0.733487 0.208920 -0.000000 0.000000 -0.000000 0.980511 -23.422899 16.798300 -0.427759 44.302700 0.855658 -2.206750 -16.155300 -4.758750 0.000000 0.000000 0.000000 -8.227870 -10.832700 -0.028101 0.253824 39.114300 -0.972814 7.962470 -25.046301 14.688400 
61.063900 83.614601 -212.826004 3.938100 -38.267799 -8.855300 -11.288300 13.331100 1.215980 3.001220 -4.321450 0.029827 -12.940100 3.692910 -6.546270 24.145500 4.979740 -11.801100 -0.000000 0.000000 0.000000 85.125099 2.218110 1.400100 -8.931420 -3.516960 15.812100 -1.095240 28.328300 4.344210 0.000000 -0.000000 -0.000000 0.000000 -0.000000 -0.000000 0.000000 -0.000000 -0.000000 7.730910 5.474880 0.417314 0.000000 -0.000000 -0.000000 2.905540 0.965183 0.102902 0.000000 -0.000000 -0.000000 10.278600 0.731801 0.025912 0.000000 -0.000000 -0.000000 2.221670 -0.733487 -0.208920 -0.000000 0.000000 0.000000 -76.395599 11.191900 -2.968080 7.437140 -2.723370 -13.075700 0.302137 15.459300 -2.227450 0.000000 -0.000000 0.000000 0.000000 -0.000000 0.000000 0.000000 -0.000000 0.000000 -7.730910 5.474880 -0.417314 0.000000 -0.000000 0.000000 -2.905540 0.965183 -0.102902 0.000000 -0.000000 0.000000 -10.278600 0.731801 -0.025912 0.000000 -0.000000 0.000000 -2.221670 -0.733487 0.208920 -0.000000 0.000000 -0.000000 1.578680 -23.238100 17.959101 -0.424997 44.203701 0.854720 -2.402230 -15.909000 -5.336600 0.000000 0.000000 0.000000 -8.063580 -10.786500 -0.065109 0.251319 38.987400 -0.969629 7.993780 -24.999100 14.770600 
60.810299 83.595398 -212.684006 3.724000 -38.554199 -8.629500 -11.083400 13.092600 1.173420 2.851390 -4.220280 0.023324 -12.953100 3.717350 -6.522580 23.944099 4.910260 -11.720900 -0.000000 0.000000 0.000000 85.219299 1.182950 1.165240 -8.815640 -3.452070 15.598500 -1.180830 29.275200 4.518900 0.000000 -0.000000 -0.000000 0.000000 -0.000000 -0.000000 0.000000 -0.000000 -0.000000 7.730910 5.474880 0.417314 0.000000 -0.000000 -0.000000 2.905540 0.965183 0.102902 0.000000 -0.000000 -0.000000 10.278600 0.731801 0.025912 0.000000 -0.000000 -0.000000 2.221670 -0.733487 -0.208920 -0.000000 0.000000 0.000000 -76.331200 10.451200 -3.053270 7.437130 -2.723530 -13.075500 0.318919 15.863000 -2.288780 0.000000 -0.000000 -0.000000 0.000000 -0.000000 -0.000000 0.000000 -0.000000 -0.000000 -7.730910 5.474880 -0.417314 0.000000 -0.000000 -0.000000 -2.905540 0.965183 -0.102902 0.000000 -0.000000 -0.000000 -10.278600 0.731801 -0.025912 0.000000 -0.000000 -0.000000 -2.221670 -0.733487 0.208920 -0.000000 0.000000 -0.000000 2.029220 -23.043600 18.715200 -0.422146 44.100601 0.853624 -2.571060 -15.734100 -5.836980 0.000000 0.000000 0.000000 -7.900010 -10.726900 -0.168293 0.249468 38.884701 -0.966122 7.989900 -24.949301 14.786800 
60.608101 83.589699 -212.516998 3.636100 -38.520401 -8.611400 -10.866200 12.991100 1.020680 2.672760 -4.158370 -0.018241 -12.938900 3.862560 -6.479840 23.795601 4.727090 -11.614000 0.000000 0.000000 0.000000 85.341698 0.235270 0.961799 -8.708700 -3.392870 15.401100 -1.250210 30.022600 4.658570 0.000000 -0.000000 -0.000000 0.000000 -0.000000 -0.000000 0.000000 -0.000000 -0.000000 7.730910 5.474880 0.417314 0.000000 -0.000000 -0.000000 2.905540 0.965183 0.102902 0.000000 -0.000000 -0.000000 10.278600 0.731801 0.025912 0.000000 -0.000000 -0.000000 2.221670 -0.733487 -0.208920 0.000000 0.000000 0.000000 -76.207497 9.986030 -3.201950 7.385750 -2.697920 -12.982100 0.334654 16.229799 -2.344710 0.000000 -0.000000 -0.000000 0.000000 -0.000000 -0.000000 0.000000 -0.000000 -0.000000 -7.730910 5.474880 -0.417314 0.000000 -0.000000 -0.000000 -2.905540 0.965183 -0.102902 0.000000 -0.000000 -0.000000 -10.278600 0.731801 -0.025912 0.000000 -0.000000 -0.000000 -2.221670 -0.733487 0.208920 -0.000000 0.000000 -0.000000 2.281400 -22.850300 18.915899 -0.419194 43.993801 0.852538 -2.719920 -15.654800 -6.265830 0.000000 0.000000 0.000000 -7.720560 -10.665900 -0.331578 0.248714 38.817299 -0.961315 7.900210 -24.873400 14.650300 
60.520901 83.633003 -212.572006 3.550200 -37.667599 -8.409800 -10.630400 12.968000 0.796135 2.468410 -4.115750 -0.082443 -12.918300 4.090250 -6.429720 23.705500 4.467400 -11.499800 0.000000 0.000000 -0.000000 85.483002 -0.725380 0.780892 -8.597560 -3.331830 15.196300 -1.316930 30.721800 4.790910 0.000000 -0.000000 0.000000 0.000000 -0.000000 -0.000000 0.000000 -0.000000 0.000000 7.730910 5.474880 0.417314 0.000000 -0.000000 0.000000 2.905540 0.965183 0.102902 0.000000 -0.000000 0.000000 10.278600 0.731801 0.025912 0.000000 -0.000000 0.000000 2.221670 -0.733487 -0.208920 0.000000 0.000000 -0.000000 -76.051804 9.692500 -3.388580 7.307340 -2.658850 -12.840000 0.348965 16.559401 -2.395120 0.000000 -0.000000 -0.000000 0.000000 -0.000000 -0.000000 0.000000 -0.000000 -0.000000 -7.730910 5.474880 -0.417314 0.000000 -0.000000 -0.000000 -2.905540 0.965183 -0.102902 0.000000 -0.000000 -0.000000 -10.278600 0.731801 -0.025912 0.000000 -0.000000 -0.000000 -2.221670 -0.733487 0.208920 -0.000000 0.000000 -0.000000 2.401300 -22.666500 18.754601 -0.416340 43.890499 0.851626 -2.857250 -15.627100 -6.651610 0.000000 0.000000 0.000000 -7.524430 -10.604600 -0.532721 0.248526 38.765400 -0.955428 7.754110 -24.771700 14.416200 
60.311901 83.676201 -212.483002 3.263700 -37.427101 -8.291100 -10.383200 12.971400 0.576694 2.330560 -4.119650 -0.141527 -12.923600 4.314260 -6.388380 23.585800 4.242390 -11.402700 0.000000 0.000000 -0.000000 85.537804 -1.637300 0.558307 -8.488230 -3.272170 14.995300 -1.380970 31.371201 4.915560 0.000000 -0.000000 0.000000 0.000000 -0.000000 0.000000 0.000000 -0.000000 0.000000 7.730910 5.474880 0.417314 0.000000 -0.000000 0.000000 2.905540 0.965183 0.102902 0.000000 -0.000000 0.000000 10.278600 0.731801 0.025912 0.000000 -0.000000 0.000000 2.221670 -0.733487 -0.208920 0.000000 0.000000 -0.000000 -75.977203 9.510320 -3.534930 7.244570 -2.627670 -12.726400 0.358169 16.770599 -2.427460 0.000000 -0.000000 -0.000000 0.000000 -0.000000 -0.000000 0.000000 -0.000000 -0.000000 -7.730910 5.474880 -0.417314 0.000000 -0.000000 -0.000000 -2.905540 0.965183 -0.102902 0.000000 -0.000000 -0.000000 -10.278600 0.731801 -0.025912 0.000000 -0.000000 -0.000000 -2.221670 -0.733487 0.208920 -0.000000 0.000000 -0.000000 2.465160 -22.474701 18.431999 -0.413466 43.784401 0.850390 -2.970170 -15.630800 -6.961860 0.000000 0.000000 0.000000 -7.348370 -10.514800 -0.801853 0.248291 38.718800 -0.950482 7.644190 -24.696800 14.238300 
